<svg width="366" height="110" viewBox="0 0 366 110" fill="none" xmlns="http://www.w3.org/2000/svg" data-v-0cf3daa7=""><path d="M341.4 47.3999H319.6V24.8999C319.6 21.8999 317.9 19.2999 315.5 17.8999C314.4 17.2999 313.1 16.8999 311.7 16.8999H238.6C236.7 16.8999 234.9 17.5999 233.5 18.6999C232.5 19.3999 231.6 20.2999 230.9 21.3999L206.1 67.3999L183.7 23.4999C183.3 21.7999 182.3 20.1999 180.9 19.0999C178.6 16.9999 175.1 16.3999 172.1 17.7999C169.6 18.9999 168 21.3999 167.7 23.9999L144.3 67.3999L121 21.5999C120.2 19.7999 118.7 18.4999 117.1 17.7999C116 17.2999 114.8 16.8999 113.5 16.8999H54.4002C53.0002 16.8999 51.7002 17.1999 50.6002 17.8999C48.1002 19.1999 46.5002 21.8999 46.5002 24.8999V47.3999H24.6002C20.2002 47.3999 16.7002 50.8999 16.7002 55.2999C16.7002 59.6999 20.2002 63.1999 24.6002 63.1999H46.4002V84.9999C46.4002 89.3999 49.9002 92.8999 54.3002 92.8999C58.7002 92.8999 62.2002 89.3999 62.2002 84.9999V63.1999H99.9002C104.3 63.1999 107.8 59.6999 107.8 55.2999C107.8 50.8999 104.3 47.3999 99.9002 47.3999H62.2002V32.7999H108.8L136.7 87.4999C136.9 87.9999 137.1 88.4999 137.4 88.8999C139.5 92.3999 143.9 93.8999 147.7 91.9999C150 90.8999 151.6 88.6999 152 86.3999L175.6 42.6999L198.4 87.4999C198.6 87.9999 198.8 88.4999 199.1 88.8999C201.2 92.3999 205.6 93.8999 209.4 91.9999C211.7 90.8999 213.3 88.6999 213.7 86.3999L242.6 32.6999H303.5V47.2999H250.7C246.4 47.2999 243 50.6999 242.8 54.8999V84.4999C242.8 88.8999 246.3 92.3999 250.7 92.3999H309C309.8 92.6999 310.7 92.3999 311.6 92.3999C316 92.3999 319.5 88.8999 319.5 84.4999V63.0999H341.3C345.7 63.0999 349.2 59.5999 349.2 55.1999C349.3 50.9999 345.7 47.3999 341.4 47.3999ZM303.7 76.6999H258.5V63.2999H303.7V76.6999Z" fill="black"/><path d="M311.6 16.9998C313 16.9998 314.3 17.2998 315.4 17.9998C317.9 19.2998 319.5 21.9998 319.5 24.9998V47.4998H341.3C345.7 47.4998 349.2 50.9998 349.2 55.3998C349.2 59.7998 345.7 63.2998 341.3 63.2998H319.5V84.6998C319.5 89.0998 316 92.5998 311.6 92.5998C310.7 92.5998 250.9 92.5998 250.9 92.5998C246.5 92.5998 243 89.0998 243 84.6998V54.9998C243.2 50.7998 246.7 47.3998 250.9 47.3998H303.7V32.7998H242.8L213.9 86.4998C213.4 88.8998 211.9 90.9998 209.6 92.0998C208.5 92.5998 207.3 92.8998 206.2 92.8998C203.5 92.8998 200.8 91.4998 199.4 88.9998C199.1 88.5998 198.9 88.0998 198.7 87.5998L175.9 42.7998L152.8 86.5998C151.8 88.8998 150.3 90.9998 148 92.1998C146.9 92.6998 145.7 92.9998 144.6 92.9998C141.9 92.9998 139.2 91.5998 137.8 89.0998C137.5 88.6998 137.3 88.1998 137.1 87.6998L109.2 32.9998H62.6V47.5998H100.3C104.7 47.5998 108.2 51.0998 108.2 55.4998C108.2 59.8998 104.7 63.3998 100.3 63.3998H62.6V85.1998C62.6 89.5998 59.1 93.0998 54.7 93.0998C50.3 93.0998 46.8 89.5998 46.8 85.1998V63.3998H24.6C20.2 63.3998 16.7 59.8998 16.7 55.4998C16.7 51.0998 20.2 47.5998 24.6 47.5998H46.4V25.0998C46.4 22.0998 48.1 19.4998 50.5 18.0998C51.6 17.4998 52.9 17.0998 54.3 17.0998H113.4C114.7 17.0998 115.9 17.3998 117 17.9998C118.7 18.6998 120.1 19.9998 120.9 21.7998L144.3 67.6998L167.7 23.8998C168.9 21.4998 169.5 19.2998 172.1 18.0998C173.2 17.5998 174.4 17.2998 175.5 17.2998C177.5 17.2998 179.4 17.9998 180.8 19.3998C182.2 20.4998 182.9 21.2998 183.9 23.1998L206 67.6998L230.8 21.6998C231.4 20.5998 232.3 19.6998 233.4 18.9998C234.8 17.8998 236.5 17.1998 238.5 17.1998H311.6M258.5 76.6998H303.7V63.2998H258.5V76.6998ZM311.6 0.799805H238.5C233.2 0.799805 228 2.5998 223.8 5.7998C220.9 7.7998 218.5 10.4998 216.8 13.4998L216.7 13.6998L216.6 13.8998L206.5 32.6998C206.5 32.6998 194.8 9.6998 191.3 6.8998C186.9 3.0998 181.3 0.999802 175.5 0.999802C171.9 0.999802 168.3 1.7998 165 3.3998C158.7 6.3998 155.2 11.9998 152.3 18.4998L144.7 32.6998L135.4 14.4998C133 9.5998 128.9 5.5998 123.9 3.2998C120.6 1.6998 117 0.899796 113.4 0.899796H54.3C50.3 0.899796 46.3 1.8998 42.8 3.7998C35 7.9998 30.2 16.1998 30.2 24.9998V31.2998H24.6C11.3 31.2998 0.5 42.0998 0.5 55.3998C0.5 68.6998 11.3 79.4998 24.6 79.4998H30.2V85.0998C30.2 98.3998 41 109.2 54.3 109.2C67.6 109.2 78.4 98.3998 78.4 85.0998V79.4998H99.8C104.4 79.4998 108.8 78.1998 112.5 75.8998L122 94.4998C122.5 95.5998 123 96.5998 123.6 97.5998C128 104.8 135.8 109.2 144.2 109.2C147.8 109.2 151.4 108.4 154.7 106.8C160.6 104 165.7 99.1998 168.3 93.0998L175.2 77.7998L183.8 94.5998C184.3 95.6998 184.8 96.6998 185.4 97.6998C189.8 104.9 197.6 109.3 206 109.3C209.6 109.3 213.2 108.5 216.5 106.9C222 104.2 226.3 99.4998 228.5 93.8998C232.1 102.7 240.8 108.9 250.9 108.9H311.6C324.9 108.9 335.7 98.4998 335.7 85.1998V79.5998H341.3C354.6 79.5998 365.4 68.7998 365.4 55.4998C365.4 42.1998 354.6 31.3998 341.3 31.3998H335.7V25.0998C335.7 16.1998 330.9 8.0998 323.1 3.8998C319.6 1.7998 315.6 0.799805 311.6 0.799805Z" fill="white"/></svg>