<svg width="182" height="171" viewBox="0 0 182 171" fill="none" xmlns="http://www.w3.org/2000/svg" class="text-columns__illustration" data-v-e850b1c4=""><path d="M151.262 86.2929H150.762H151.262ZM132.834 128.505L132.49 128.142L132.49 128.142L132.834 128.505ZM89.6844 145.466V144.966V145.466ZM46.5348 128.505L46.879 128.142L46.8789 128.142L46.5348 128.505ZM29.1934 88.7885H28.6934H29.1934ZM58.1004 54.9527L57.7563 54.59L58.1004 54.9527ZM91.0016 114.658L90.599 114.955C90.6932 115.083 90.8427 115.158 91.0017 115.158C91.1606 115.158 91.3101 115.083 91.4043 114.955L91.0016 114.658ZM70.9385 87.4036L70.5453 87.0948C70.4065 87.2715 70.4026 87.5191 70.5358 87.7001L70.9385 87.4036ZM91.002 61.8638L91.3952 61.555C91.3004 61.4343 91.1554 61.3638 91.002 61.3638C90.8485 61.3638 90.7036 61.4342 90.6088 61.5549L91.002 61.8638ZM111.061 87.404L111.464 87.7004C111.597 87.5195 111.593 87.2719 111.454 87.0952L111.061 87.404ZM180.305 83.6906C180.305 131.171 139.735 169.705 89.6311 169.705V170.705C140.237 170.705 181.305 131.772 181.305 83.6906H180.305ZM89.6311 169.705C41.0384 169.705 1.69434 132.331 1.69434 86.2842H0.694336C0.694336 132.932 40.5361 170.705 89.6311 170.705V169.705ZM1.69434 86.2842C1.69434 41.6298 39.8508 5.38644 86.9796 5.38644V4.38644C39.3487 4.38644 0.694336 41.0287 0.694336 86.2842H1.69434ZM16.1045 90.7805C16.1045 50.9659 50.1184 18.6499 92.1467 18.6499V17.6499C49.6161 17.6499 15.1045 50.3649 15.1045 90.7805H16.1045ZM92.1467 18.6499C132.902 18.6499 165.896 49.9906 165.896 88.6008H166.896C166.896 49.3895 133.404 17.6499 92.1467 17.6499V18.6499ZM165.896 88.6008C165.896 126.044 133.898 156.449 94.3659 156.449V157.449C134.401 157.449 166.896 126.645 166.896 88.6008H165.896ZM132.49 44.4438C138.285 49.9417 142.88 56.4675 146.015 63.6477L146.931 63.2476C143.742 55.9424 139.068 49.3066 133.178 43.7184L132.49 44.4438ZM146.015 63.6477C149.149 70.8279 150.762 78.5227 150.762 86.2929H151.762C151.762 78.3838 150.12 70.553 146.931 63.2476L146.015 63.6477ZM150.762 86.2929C150.762 94.063 149.149 101.758 146.015 108.938L146.931 109.338C150.12 102.033 151.762 94.2019 151.762 86.2929H150.762ZM146.015 108.938C142.88 116.118 138.285 122.644 132.49 128.142L133.178 128.867C139.068 123.279 143.742 116.643 146.931 109.338L146.015 108.938ZM132.49 128.142C126.871 133.474 120.199 137.705 112.854 140.592L113.22 141.523C120.682 138.59 127.464 134.29 133.178 128.867L132.49 128.142ZM112.854 140.592C105.509 143.48 97.6361 144.966 89.6844 144.966V145.966C97.7603 145.966 105.758 144.456 113.22 141.523L112.854 140.592ZM89.6844 144.966C81.7328 144.966 73.8596 143.48 66.5146 140.592L66.1488 141.523C73.6111 144.456 81.6085 145.966 89.6844 145.966V144.966ZM66.5146 140.592C59.1697 137.705 52.4977 133.474 46.879 128.142L46.1906 128.867C51.9044 134.29 58.6864 138.59 66.1488 141.523L66.5146 140.592ZM46.8789 128.142C41.4287 122.972 37.1068 116.836 34.1586 110.083L33.2421 110.484C36.2449 117.361 40.6453 123.607 46.1907 128.867L46.8789 128.142ZM34.1586 110.083C31.2104 103.331 29.6934 96.0954 29.6934 88.7885H28.6934C28.6934 96.2343 30.2393 103.606 33.2421 110.484L34.1586 110.083ZM29.6934 88.7885C29.6934 81.4816 31.2104 74.2456 34.1586 67.4936L33.2421 67.0934C30.2393 73.9706 28.6934 81.3427 28.6934 88.7885H29.6934ZM34.1586 67.4936C37.1068 60.7415 41.4287 54.6049 46.8789 49.4352L46.1907 48.7096C40.6453 53.9697 36.2449 60.2163 33.2421 67.0934L34.1586 67.4936ZM93.1822 132.844C80.3101 132.844 67.9701 127.992 58.8757 119.362L58.1873 120.088C67.4728 128.899 80.0613 133.844 93.1822 133.844V132.844ZM58.8757 119.362C49.7822 110.734 44.6787 99.0362 44.6787 86.8451H43.6787C43.6787 99.3188 48.901 111.276 58.1873 120.088L58.8757 119.362ZM44.6787 86.8451C44.6787 80.9916 45.8937 75.1946 48.2551 69.7851L47.3386 69.385C44.9226 74.9197 43.6787 80.8527 43.6787 86.8451H44.6787ZM48.2551 69.7851C50.6165 64.3755 54.0784 59.4584 58.4446 55.3154L57.7563 54.59C53.295 58.8233 49.7546 63.8504 47.3386 69.385L48.2551 69.7851ZM58.4446 55.3154C67.263 46.9476 79.2286 42.2424 91.7105 42.2424V41.2424C78.9799 41.2424 66.7657 46.0409 57.7563 54.59L58.4446 55.3154ZM91.7105 42.2424C103.814 42.2424 115.418 46.8052 123.969 54.9193L124.657 54.1939C115.915 45.8985 104.063 41.2424 91.7105 41.2424V42.2424ZM123.969 54.9193C132.519 63.0326 137.317 74.0309 137.317 85.4929H138.317C138.317 73.7482 133.4 62.4902 124.657 54.1939L123.969 54.9193ZM94.5904 4.88294C94.5904 6.7269 93.0072 8.26589 90.9983 8.26589V9.26589C93.5094 9.26589 95.5904 7.32797 95.5904 4.88294H94.5904ZM90.9983 8.26589C88.9894 8.26589 87.4062 6.7269 87.4062 4.88294H86.4062C86.4062 7.32797 88.4872 9.26589 90.9983 9.26589V8.26589ZM87.4062 4.88294C87.4062 3.03898 88.9894 1.5 90.9983 1.5V0.5C88.4872 0.5 86.4062 2.43792 86.4062 4.88294H87.4062ZM90.9983 1.5C93.0072 1.5 94.5904 3.03899 94.5904 4.88294H95.5904C95.5904 2.43792 93.5094 0.5 90.9983 0.5V1.5ZM141.414 89.4058C141.414 91.2498 139.83 92.7887 137.822 92.7887V93.7887C140.333 93.7887 142.414 91.8508 142.414 89.4058H141.414ZM137.822 92.7887C135.813 92.7887 134.229 91.2498 134.229 89.4058H133.229C133.229 91.8508 135.31 93.7887 137.822 93.7887V92.7887ZM134.229 89.4058C134.229 87.5618 135.813 86.0229 137.822 86.0229V85.0229C135.31 85.0229 133.229 86.9608 133.229 89.4058H134.229ZM137.822 86.0229C139.83 86.0229 141.414 87.5618 141.414 89.4058H142.414C142.414 86.9608 140.333 85.0229 137.822 85.0229V86.0229ZM19.1968 94.7743C19.1968 96.6182 17.6136 98.1572 15.6048 98.1572V99.1572C18.1158 99.1572 20.1968 97.2193 20.1968 94.7743H19.1968ZM15.6048 98.1572C13.5959 98.1572 12.0127 96.6182 12.0127 94.7743H11.0127C11.0127 97.2193 13.0937 99.1572 15.6048 99.1572V98.1572ZM12.0127 94.7743C12.0127 92.9303 13.5959 91.3913 15.6048 91.3913V90.3913C13.0937 90.3913 11.0127 92.3293 11.0127 94.7743H12.0127ZM15.6048 91.3913C17.6136 91.3913 19.1968 92.9303 19.1968 94.7743H20.1968C20.1968 92.3293 18.1158 90.3913 15.6048 90.3913V91.3913ZM133.225 41.7426C133.225 43.5865 131.642 45.1255 129.633 45.1255V46.1255C132.144 46.1255 134.225 44.1876 134.225 41.7426H133.225ZM129.633 45.1255C127.624 45.1255 126.041 43.5865 126.041 41.7426H125.041C125.041 44.1876 127.122 46.1255 129.633 46.1255V45.1255ZM126.041 41.7426C126.041 39.8986 127.624 38.3596 129.633 38.3596V37.3596C127.122 37.3596 125.041 39.2976 125.041 41.7426H126.041ZM129.633 38.3596C131.642 38.3596 133.225 39.8986 133.225 41.7426H134.225C134.225 39.2976 132.144 37.3596 129.633 37.3596V38.3596ZM91.4043 114.362L71.3411 87.1072L70.5358 87.7001L90.599 114.955L91.4043 114.362ZM70.8224 87.89L90.8856 92.6781L91.1177 91.7054L71.0545 86.9173L70.8224 87.89ZM90.5016 92.1917V114.658H91.5016V92.1917H90.5016ZM90.6087 62.1726L110.668 87.7129L111.454 87.0952L91.3952 61.555L90.6087 62.1726ZM110.945 86.9177L90.8856 91.7054L91.1177 92.6781L111.177 87.8904L110.945 86.9177ZM91.5016 92.1917L91.502 61.8638L90.502 61.8638L90.5016 92.1917L91.5016 92.1917ZM91.4043 114.955L111.464 87.7004L110.659 87.1076L90.599 114.362L91.4043 114.955ZM90.6088 61.5549L70.5453 87.0948L71.3317 87.7125L91.3951 62.1727L90.6088 61.5549Z" fill="#5D5D5D" style="opacity: 1; visibility: inherit; stroke-dasharray: 3254px; stroke-dashoffset: 0px;"/></svg>