<svg width="243" height="160" viewBox="0 0 243 160" fill="none" xmlns="http://www.w3.org/2000/svg" class="text-columns__illustration" data-v-e850b1c4=""><path d="M121.503 110.737C138.514 110.737 152.304 96.9773 152.304 80.0034C152.304 63.0296 138.514 49.2695 121.503 49.2695C104.492 49.2695 90.7021 63.0296 90.7021 80.0034C90.7021 96.9773 104.492 110.737 121.503 110.737Z" fill="none" style="opacity: 1; visibility: inherit; stroke-dasharray: 193px; stroke-dashoffset: 0px;"/><path d="M121.497 80.0036C158.265 80.0036 188.067 40.6572 188.067 40.6572C188.067 40.6572 158.259 1.30469 121.497 1.30469C84.7346 1.30469 54.9272 40.6572 54.9272 40.6572C54.9272 40.6572 84.7285 80.0036 121.497 80.0036ZM121.497 80.0036C84.7346 80.0036 54.9272 119.349 54.9272 119.349C54.9272 119.349 84.7285 158.696 121.497 158.696C158.265 158.696 188.067 119.349 188.067 119.349C188.067 119.349 158.259 80.0036 121.497 80.0036ZM47.058 17.6714L28.4238 2.07031M214.577 157.929L195.942 142.328M37.3417 31.5211L16.2754 19.3809M226.725 140.62L205.659 128.485M30.1851 46.8365L7.32666 38.5342M235.673 121.466L212.815 113.164M25.8028 63.1613L1.84717 58.9463M241.153 101.054L217.197 96.8389M24.3213 80.0029H0M243 80.0029H218.679M25.8028 96.8389L1.84717 101.054M241.153 58.9463L217.197 63.1613M30.1851 113.164L7.32666 121.466M235.673 38.5342L212.815 46.8365M37.3417 128.485L16.2754 140.62M226.725 19.3809L205.659 31.5211M47.058 142.328L28.4238 157.929M214.577 2.07031L195.942 17.6714M152.304 40.6509C152.304 57.6247 138.514 71.3848 121.503 71.3848C104.492 71.3848 90.7021 57.6247 90.7021 40.6509C90.7021 23.677 104.492 9.91699 121.503 9.91699C138.514 9.91699 152.304 23.677 152.304 40.6509ZM188.067 80.0027C188.067 80.0027 158.265 119.349 121.497 119.349C84.7285 119.349 54.9272 80.0027 54.9272 80.0027C54.9272 80.0027 84.7346 40.6562 121.497 40.6562C158.259 40.6562 188.067 80.0027 188.067 80.0027ZM152.304 119.349C152.304 136.323 138.514 150.083 121.503 150.083C104.492 150.083 90.7021 136.323 90.7021 119.349C90.7021 102.375 104.492 88.6152 121.503 88.6152C138.514 88.6152 152.304 102.375 152.304 119.349ZM121.503 110.737C138.514 110.737 152.304 96.9773 152.304 80.0034C152.304 63.0296 138.514 49.2695 121.503 49.2695C104.492 49.2695 90.7021 63.0296 90.7021 80.0034C90.7021 96.9773 104.492 110.737 121.503 110.737Z" stroke="#5D5D5D" stroke-miterlimit="10" style="opacity: 1; visibility: inherit; stroke-dasharray: 1975px; stroke-dashoffset: 0px;"/></svg>