<svg width="446" height="321" viewBox="0 0 446 321" fill="none" xmlns="http://www.w3.org/2000/svg" data-v-0cf3daa7=""><path d="M259.646 7.18981V14.3794L266.754 14.2972L273.82 14.174V7.18981V0.205645L266.754 0.0823949L259.646 0.000228278V7.18981Z" fill="white"/><path d="M276.491 7.18981V14.3794H283.68H290.87V7.18981V0.000228278H283.68H276.491V7.18981Z" fill="white"/><path d="M293.746 7.18981V14.3794H300.936H308.125V7.18981V0.000228278H300.936H293.746V7.18981Z" fill="white"/><path d="M361.944 7.18981V14.3794H368.887C374.845 14.3794 375.872 14.2972 376.077 13.7221C376.2 13.3523 376.324 10.4354 376.324 7.18981C376.324 3.94423 376.2 1.02731 376.077 0.657562C375.872 0.0823949 374.845 0.000228278 368.887 0.000228278H361.944V7.18981Z" fill="white"/><path d="M378.789 7.18981V14.3794H385.978H393.168V7.18981V0.000228278H385.978H378.789V7.18981Z" fill="white"/><path d="M396.043 7.18981V14.3794H403.233H410.423V7.18981V0.000228278H403.233H396.043V7.18981Z" fill="white"/><path d="M242.803 24.0751V31.2236H249.91H256.976L256.894 24.7735C256.812 21.1993 256.771 17.9537 256.771 17.5429C256.771 16.8855 256.237 16.8034 249.787 16.8445L242.803 16.9266V24.0751Z" fill="white"/><path d="M276.778 17.091C276.614 17.2553 276.491 20.5009 276.491 24.3216V31.2236H283.68H290.87L290.788 24.1162L290.664 17.0499L283.886 16.9266C280.147 16.8445 276.943 16.9266 276.778 17.091Z" fill="white"/><path d="M293.746 24.0751V31.2236H300.936H308.125V24.2805C308.125 18.1591 308.043 17.2964 307.427 17.091C307.057 16.9266 303.812 16.8445 300.237 16.8855L293.746 16.9266V24.0751Z" fill="white"/><path d="M310.877 17.132C310.713 17.2553 310.59 20.5009 310.59 24.3216V31.2236H317.779H324.969V24.034V16.8445H318.067C314.246 16.8445 311.001 16.9677 310.877 17.132Z" fill="white"/><path d="M345.1 16.9677C345.1 17.0088 345.059 20.2544 344.977 24.1573L344.895 31.2236H352.002H359.068V24.0751V16.9266H352.084C348.263 16.8855 345.1 16.9266 345.1 16.9677Z" fill="white"/><path d="M361.944 24.034V31.2236H369.052H376.118L376.241 26.0882C376.324 23.2535 376.282 20.049 376.118 18.9397L375.831 16.9266L368.887 16.8855H361.944V24.034Z" fill="white"/><path d="M379.323 17.091C378.912 17.2553 378.789 19.104 378.789 24.2805V31.2236H385.978H393.168L393.086 24.1162L392.962 17.0499L386.389 16.9677C382.774 16.9266 379.569 16.9677 379.323 17.091Z" fill="white"/><path d="M396.331 17.091C396.167 17.2553 396.043 20.5009 396.043 24.3216V31.2236H403.233H410.423L410.34 24.1162L410.217 17.0499L403.397 16.9266C399.659 16.8855 396.495 16.9677 396.331 17.091Z" fill="white"/><path d="M413.175 17.091C413.011 17.2553 412.888 20.5009 412.888 24.3216V31.2236H420.077H427.267L427.185 24.1162L427.061 17.0499L420.242 16.9266C416.503 16.8855 413.34 16.9677 413.175 17.091Z" fill="white"/><path d="M225.424 34.3869C225.26 34.5102 225.137 37.7558 225.137 41.5765V48.4785H232.326H239.516V41.2889V34.0993H232.614C228.793 34.0993 225.548 34.2226 225.424 34.3869Z" fill="white"/><path d="M242.803 41.3711V48.4785H249.787H256.73L256.853 41.5354L256.976 34.5513L255.621 34.3048C254.84 34.1815 251.677 34.0993 248.513 34.1404L242.803 34.2637V41.3711Z" fill="white"/><path d="M259.646 41.2889V48.4785H266.836H274.026V41.7408C274.026 36.8108 273.902 34.921 273.492 34.5923C273.204 34.3458 270.328 34.1404 266.302 34.1404H259.646V41.2889Z" fill="white"/><path d="M276.491 41.2889V48.4785H283.68H290.87L290.788 41.3711L290.664 34.3048L283.598 34.2226L276.491 34.1404V41.2889Z" fill="white"/><path d="M293.746 41.33V48.4785H300.936H308.125L308.043 41.3711L307.92 34.3048L300.854 34.2226L293.746 34.1404V41.33Z" fill="white"/><path d="M310.877 34.3869C310.713 34.5102 310.59 37.7558 310.59 41.5765V48.4785H317.779H324.969V41.2889V34.0993H318.067C314.246 34.0993 311.001 34.2226 310.877 34.3869Z" fill="white"/><path d="M327.681 34.7567C327.557 35.1264 327.434 38.3309 327.434 41.9463V48.4785H334.624H341.813V41.5354C341.813 35.5783 341.731 34.5513 341.156 34.3458C340.786 34.2226 337.664 34.0993 334.213 34.0993C328.872 34.0993 327.886 34.1815 327.681 34.7567Z" fill="white"/><path d="M345.018 34.5102C344.936 34.7156 344.936 37.9612 345.018 41.6998L345.141 48.4785H352.084H359.068V41.33V34.1815L352.125 34.1404C348.017 34.1404 345.1 34.3048 345.018 34.5102Z" fill="white"/><path d="M361.944 41.33V48.4785H369.134H376.324L376.241 41.3711L376.118 34.3048L369.052 34.2226L361.944 34.1404V41.33Z" fill="white"/><path d="M379.733 34.3869C378.789 34.5513 378.789 34.6334 378.789 41.5354V48.4785H385.978H393.168L393.086 41.3711L392.962 34.3048L386.8 34.2637C383.431 34.2226 380.226 34.2637 379.733 34.3869Z" fill="white"/><path d="M396.043 41.2889V48.4785H403.233H410.423L410.34 41.3711L410.217 34.3048L403.151 34.1815L396.043 34.0993V41.2889Z" fill="white"/><path d="M413.175 34.3869C413.011 34.5102 412.888 37.7558 412.888 41.5765V48.4785H420.077H427.267V41.2889V34.0993H420.365C416.544 34.0993 413.299 34.2226 413.175 34.3869Z" fill="white"/><path d="M430.019 34.3869C429.896 34.4691 429.773 37.7147 429.732 41.5354L429.69 48.4785H436.921H444.111V41.33V34.1815H437.168C433.347 34.1815 430.101 34.2637 430.019 34.3869Z" fill="white"/><path d="M225.424 51.6417C225.26 51.7649 225.137 54.9283 225.137 58.5848C225.137 65.1992 225.137 65.3224 226.082 65.5278C226.575 65.6511 229.779 65.6922 233.148 65.6511L239.31 65.5278L239.434 58.4204L239.516 51.3541H232.614C228.793 51.3541 225.548 51.4773 225.424 51.6417Z" fill="white"/><path d="M242.803 58.2974C242.803 63.4739 242.926 65.2815 243.337 65.4459C243.583 65.528 246.747 65.6513 250.321 65.6513L256.771 65.6924V58.5439V51.3543H249.787H242.803V58.2974Z" fill="white"/><path d="M259.646 58.4614V65.5688H266.754L273.82 65.5278L273.943 58.4203L274.026 51.354H266.836H259.646V58.4614Z" fill="white"/><path d="M276.491 58.2974C276.491 64.0901 276.573 65.2815 277.107 65.487C277.846 65.7335 289.596 65.7335 290.377 65.4459C290.747 65.2815 290.87 63.4739 290.87 58.2974V51.3543H283.68H276.491V58.2974Z" fill="white"/><path d="M293.746 58.5439V65.6924L300.402 65.6513C304.099 65.6513 307.304 65.528 307.591 65.4459C308.002 65.2815 308.125 63.515 308.125 58.2974V51.3543H300.936H293.746V58.5439Z" fill="white"/><path d="M310.59 58.3383C310.59 65.2403 310.59 65.3224 311.535 65.5278C312.028 65.6511 315.232 65.6922 318.601 65.6511L324.764 65.5278L324.887 58.4204L324.969 51.3541H317.779H310.59V58.3383Z" fill="white"/><path d="M327.516 58.4206L327.639 65.528L334.747 65.6102L341.813 65.6924V58.5028V51.3543H334.624H327.434L327.516 58.4206Z" fill="white"/><path d="M344.895 58.3387C344.895 62.6113 345.059 65.3639 345.305 65.4872C345.552 65.5693 348.674 65.6104 352.29 65.5693L358.863 65.5282L358.986 58.4208L359.068 51.3545H352.002H344.895V58.3387Z" fill="white"/><path d="M361.944 58.2972C361.944 65.076 361.985 65.2403 362.848 65.4457C363.341 65.569 366.464 65.6922 369.832 65.6511C375.707 65.6511 375.913 65.61 376.118 64.7473C376.241 64.2954 376.282 61.0909 376.241 57.722L376.118 51.5595L369.052 51.4363L361.944 51.3541V58.2972Z" fill="white"/><path d="M378.789 58.5439V65.6924H385.444C389.1 65.6513 392.305 65.5691 392.634 65.4459C393.044 65.2815 393.168 63.6793 393.168 58.2974V51.3543H385.978H378.789V58.5439Z" fill="white"/><path d="M396.043 58.3383C396.043 65.2403 396.043 65.3224 396.988 65.5278C397.481 65.6511 400.686 65.6922 404.055 65.6511L410.217 65.5278L410.34 58.4204L410.423 51.3541H403.233H396.043V58.3383Z" fill="white"/><path d="M412.97 58.4204L413.093 65.5278L419.256 65.6511C422.666 65.6922 425.829 65.6511 426.363 65.5278C427.267 65.3224 427.267 65.2403 427.267 58.3383V51.3541H420.077H412.888L412.97 58.4204Z" fill="white"/><path d="M429.814 58.4204L429.937 65.5278H436.921H443.905L444.028 58.4204L444.111 51.3541H436.921H429.731L429.814 58.4204Z" fill="white"/><path d="M6.49093 79.702C6.44984 86.0288 6.40876 91.8216 6.40876 92.52L6.36768 93.8758L12.8588 93.9579C16.4331 93.999 19.5965 93.9579 19.9252 93.7936C20.4182 93.6293 20.5414 92.52 20.5414 88.083V82.5368L26.2931 82.66L32.0448 82.7833L32.0858 109.693V136.602L27.731 136.726L23.4173 136.849V143.751C23.4173 150.53 23.4173 150.694 24.3211 150.899C24.8141 151.023 31.9215 151.146 40.1382 151.187H55.0514V143.997V136.808H50.7377H46.4239V109.693V82.5778H52.3399H58.2559V87.7954C58.2559 90.7123 58.297 93.3006 58.297 93.5471C58.3381 94.3277 71.7313 94.3277 72.0188 93.5471C72.101 93.3006 72.2243 87.4668 72.2653 80.6058L72.3475 68.1987H39.4808H6.57309L6.49093 79.702Z" fill="white"/><path d="M75.1826 75.3881V82.5777H79.7018H84.221V109.693V136.808H79.7018H75.1826V143.751C75.1826 149.297 75.3059 150.735 75.7578 150.899C76.0865 151.023 83.3993 151.105 92.0679 151.064L107.844 150.981L107.967 143.874L108.049 136.808H103.736H99.4218V126.742V116.677H114.828H130.234V126.742V136.808H125.921H121.607L121.689 143.874L121.812 150.981L137.136 151.105C145.599 151.187 152.912 151.146 153.487 151.023L154.473 150.735L154.391 143.874L154.268 137.013L150.078 136.89C147.078 136.808 145.846 136.643 145.846 136.274C145.846 135.986 145.805 123.825 145.723 109.159L145.641 82.5777H149.79C153.241 82.5777 154.022 82.4545 154.227 81.9204C154.35 81.5506 154.473 78.3461 154.473 74.7308V68.1985H138.04H121.607V75.3881V82.5777H125.921H130.234V92.4377V102.298H114.828H99.4218V92.4377V82.5777H103.736H108.049V75.3881V68.1985H91.616H75.1826V75.3881Z" fill="white"/><path d="M157.349 75.3883V82.5778H161.868H166.387V109.693V136.808H161.868H157.349V143.997V151.146L190.01 151.187H222.672V138.657V126.085L215.646 126.208L208.662 126.332L208.621 131.056C208.621 133.644 208.498 136.027 208.416 136.274C208.251 136.685 205.17 136.808 194.899 136.808H181.588V126.742V116.677H193.502H205.417V109.487V102.298H193.502H181.588V92.4378V82.5778H194.899C206.197 82.5778 208.251 82.66 208.416 83.1941C208.58 83.5228 208.621 85.8234 208.58 88.3295L208.498 92.8487H215.605H222.672V80.5237V68.1987H190.01H157.349V75.3883Z" fill="white"/><path d="M225.137 74.7307C225.137 78.3461 225.26 81.5506 225.383 81.9203C225.589 82.4955 226.616 82.5776 232.573 82.5776H239.516V75.3881V68.1985H232.326H225.137V74.7307Z" fill="white"/><path d="M242.803 75.3881V82.5776H249.746C253.977 82.5776 256.771 82.4133 256.853 82.1668C256.935 81.9614 256.935 78.7158 256.853 74.9772L256.73 68.1985H249.787H242.803V75.3881Z" fill="white"/><path d="M259.646 75.3881V82.5776L266.754 82.4955L273.82 82.3722L273.943 75.2648L274.026 68.1985H266.836H259.646V75.3881Z" fill="white"/><path d="M276.491 75.3881V82.5776H283.68H290.87V75.3881V68.1985H283.68H276.491V75.3881Z" fill="white"/><path d="M293.746 75.3881V82.5776H300.936H308.125V75.3881V68.1985H300.936H293.746V75.3881Z" fill="white"/><path d="M310.59 75.3881V82.5776H317.779H324.969V75.3881V68.1985H317.779H310.59V75.3881Z" fill="white"/><path d="M327.516 75.2648L327.639 82.3722L334.747 82.4955L341.813 82.5776V75.3881V68.1985H334.624H327.434L327.516 75.2648Z" fill="white"/><path d="M345.018 75.2237C344.936 79.0856 344.977 82.3311 345.059 82.4133C345.141 82.4955 348.346 82.5776 352.166 82.5776H359.068V75.3881V68.1985H352.084H345.141L345.018 75.2237Z" fill="white"/><path d="M361.944 75.3881V82.5776H368.887C374.845 82.5776 375.872 82.4955 376.077 81.9203C376.2 81.5506 376.324 78.3461 376.324 74.7307V68.1985H369.134H361.944V75.3881Z" fill="white"/><path d="M378.789 75.3881V82.5776H385.978H393.168V75.3881V68.1985H385.978H378.789V75.3881Z" fill="white"/><path d="M396.043 75.3881V82.5776H403.233H410.423V75.3881V68.1985H403.233H396.043V75.3881Z" fill="white"/><path d="M412.888 75.3881V82.5776H420.077H427.267V75.3881V68.1985H420.077H412.888V75.3881Z" fill="white"/><path d="M429.814 75.2648L429.937 82.3722L437.044 82.4955L444.111 82.5776V75.3881V68.1985H436.88H429.69L429.814 75.2648Z" fill="white"/><path d="M242.803 92.6429V99.8325H249.787H256.771L256.812 93.7522C256.853 90.4244 256.894 87.2199 256.935 86.5626L257.059 85.4534H249.91H242.803V92.6429Z" fill="white"/><path d="M259.646 92.6429V99.8325L266.754 99.7504L273.82 99.6271V92.6429V85.6588L266.754 85.5355L259.646 85.4534V92.6429Z" fill="white"/><path d="M276.491 92.6429V99.8325H283.68H290.87V92.6429V85.4534H283.68H276.491V92.6429Z" fill="white"/><path d="M293.746 92.6429V99.8325H300.936H308.125V92.6429V85.4534H300.936H293.746V92.6429Z" fill="white"/><path d="M310.59 92.6429V99.8325H317.779H324.969V92.6429V85.4534H317.779H310.59V92.6429Z" fill="white"/><path d="M327.475 90.7942C327.434 93.7111 327.516 96.9567 327.639 97.9838L327.927 99.8325H334.87H341.813V92.6429V85.4534H334.706H327.557L327.475 90.7942Z" fill="white"/><path d="M344.977 92.5197L345.059 99.6271L352.043 99.7504L359.068 99.8325V92.6429V85.4534H352.002H344.895L344.977 92.5197Z" fill="white"/><path d="M361.944 92.6429V99.8325H368.887C374.228 99.8325 375.872 99.7093 376.036 99.2984C376.365 98.4768 376.406 87.7129 376.077 86.5215L375.831 85.4534H368.887H361.944V92.6429Z" fill="white"/><path d="M378.789 92.6429V99.8325H385.978H393.168V92.6429V85.4534H385.978H378.789V92.6429Z" fill="white"/><path d="M396.043 92.6429V99.8325H403.233H410.423V92.6429V85.4534H403.233H396.043V92.6429Z" fill="white"/><path d="M412.888 92.6429V99.8325H420.077H427.267V92.6429V85.4534H420.077H412.888V92.6429Z" fill="white"/><path d="M259.646 109.487V116.677L266.754 116.595L273.82 116.471V109.487V102.503L266.754 102.38L259.646 102.298V109.487Z" fill="white"/><path d="M276.491 109.487V116.677H283.68H290.87V109.487V102.298H283.68H276.491V109.487Z" fill="white"/><path d="M293.746 109.487V116.677H300.936H308.125V109.487V102.298H300.936H293.746V109.487Z" fill="white"/><path d="M310.59 109.487V116.677H317.779H324.969V109.487V102.298H317.779H310.59V109.487Z" fill="white"/><path d="M327.639 104.146C327.516 105.173 327.434 108.419 327.475 111.336L327.557 116.677H334.706H341.813V109.487V102.298H334.87H327.927L327.639 104.146Z" fill="white"/><path d="M345.1 102.38C345.1 102.462 345.018 105.708 344.977 109.61L344.895 116.677H352.002H359.068V109.487V102.298H352.084C348.263 102.298 345.1 102.339 345.1 102.38Z" fill="white"/><path d="M361.944 109.487V116.677H368.887H375.831L376.077 115.609C376.406 114.417 376.365 103.653 376.036 102.832C375.872 102.421 374.228 102.298 368.887 102.298H361.944V109.487Z" fill="white"/><path d="M378.789 109.487V116.677H385.978H393.168V109.487V102.298H385.978H378.789V109.487Z" fill="white"/><path d="M396.043 109.487V116.677H403.233H410.423V109.487V102.298H403.233H396.043V109.487Z" fill="white"/><path d="M293.746 126.414V133.521H300.936H308.125L308.043 126.496L307.92 119.429L300.854 119.388L293.746 119.347V126.414Z" fill="white"/><path d="M334.336 119.553L327.434 119.758L327.516 126.619L327.557 133.521H334.706H341.813V126.331C341.813 122.387 341.69 119.183 341.526 119.224C341.32 119.265 338.116 119.429 334.336 119.553Z" fill="white"/><path d="M351.345 119.553L345.1 119.758L344.977 126.66L344.895 133.521H352.002H359.068L358.986 126.455C358.863 120.539 358.781 119.429 358.247 119.388C357.918 119.347 354.796 119.429 351.345 119.553Z" fill="white"/><path d="M362.643 119.47C362.027 119.594 361.944 120.292 361.944 126.578V133.521H369.093H376.241L376.159 126.455L376.118 119.429L369.75 119.388C366.258 119.347 363.054 119.388 362.643 119.47Z" fill="white"/><path d="M310.59 126.537V133.521H317.779H324.969V126.537V119.553H317.779H310.59V126.537Z" fill="white"/><path d="M310.59 143.792C310.59 150.694 310.59 150.776 311.535 150.981C312.028 151.105 315.232 151.146 318.601 151.105L324.764 150.981L324.887 143.874L324.969 136.808H317.779H310.59V143.792Z" fill="white"/><path d="M327.516 143.874L327.639 150.981L334.747 151.063L341.813 151.146V143.956V136.807H334.624H327.434L327.516 143.874Z" fill="white"/><path d="M344.895 143.792C344.895 148.064 345.059 150.817 345.305 150.94C345.552 151.022 348.674 151.064 352.29 151.022L358.863 150.981L358.986 143.874L359.068 136.808H352.002H344.895V143.792Z" fill="white"/><path d="M117.293 152.871C103.982 154.638 92.5608 162.485 85.8643 174.358C84.4263 176.946 82.7419 181.547 81.9203 185.081C80.811 189.887 80.8932 199.049 82.0846 203.65C84.1388 211.579 88.0006 218.194 93.7523 223.74C104.393 233.97 118.567 237.544 133.233 233.764C144.778 230.765 155.542 221.357 160.184 210.141C162.772 203.938 163.265 201.391 163.265 193.708C163.306 185.368 162.608 182.123 159.403 175.631C153.816 164.292 143.134 155.953 131.056 153.529C126.989 152.666 120.867 152.378 117.293 152.871ZM128.139 168.647C132.453 169.674 136.191 171.893 139.889 175.631C145.23 180.972 147.53 186.56 147.53 194.324C147.53 205.581 140.916 215.113 130.522 218.933C127.851 219.878 126.989 220.001 122.018 219.96C117.088 219.96 116.143 219.837 113.719 218.892C105.338 215.729 99.2985 209.032 97.08 200.487C96.1762 196.913 96.1762 190.421 97.1211 187.176C99.8326 177.973 106.735 171.112 115.855 168.688C118.813 167.908 124.852 167.867 128.139 168.647Z" fill="white"/><path d="M23.4175 160.842V167.99L27.7312 168.113L32.0861 168.237L32.045 194.119V220.002L27.7312 220.125L23.4175 220.248V227.191V234.175H52.1758H80.9341V222.056V209.936H73.8267H66.7193L66.7604 214.948V220.002L56.6128 220.125L46.4241 220.207V194.119V168.031H50.7379H55.0516V160.842V153.652H39.2346H23.4175V160.842Z" fill="white"/><path d="M157.349 160.841V168.031H162.033H166.675L167.579 170.373C168.113 171.687 171.441 180.52 175.015 190.01C178.589 199.501 183.848 213.346 186.642 220.823L191.777 234.38H199.501H207.224L208.498 231.094C209.196 229.286 214.825 214.373 221.028 197.939L232.326 168.031H236.763H241.159V160.841V153.652H225.547H209.936V160.841V167.99L213.592 168.113L217.249 168.236L208.539 191.736C203.773 204.677 199.747 215.359 199.624 215.482C199.501 215.605 195.433 205.006 190.586 191.982L181.794 168.236L185.697 168.031L189.6 167.825L189.723 160.718L189.846 153.652H173.618H157.349V160.841Z" fill="white"/><path d="M244.035 160.842V168.031H248.554H253.073V194.119V220.207H248.554H244.035V227.191V234.175H260.058H276.08V227.191V220.207H271.766H267.453L267.412 195.023C267.412 181.219 267.329 169.469 267.288 168.935C267.165 168.031 267.247 168.031 271.643 168.031H276.08V160.842V153.652H260.058H244.035V160.842Z" fill="white"/><path d="M278.545 160.842V168.031H283.064H287.583V194.119V220.207H283.064H278.545V227.191V234.175H310.179H341.813V222.056V209.936L334.747 210.018L327.681 210.142L327.804 215.154L327.927 220.207H314.945H301.962V210.347V200.487H313.466H324.969V193.503V186.519H313.466H301.962V177.275V168.031H313.466H324.969V160.842V153.652H301.757H278.545V160.842Z" fill="white"/><path d="M327.516 160.718L327.639 167.825L334.747 167.949L341.813 168.031V160.841V153.652H334.624H327.434L327.516 160.718Z" fill="white"/><path d="M327.804 171.195C327.804 171.441 327.804 180.397 327.845 184.752C327.845 185.163 329.529 185.286 334.829 185.286H341.813V178.097V170.907H334.829C331.008 170.907 327.845 171.03 327.804 171.195Z" fill="white"/><path d="M411.039 237.051C404.013 238.489 397.399 243.378 394.195 249.376C389.881 257.675 391.154 268.274 397.235 274.683C401.507 279.202 405.698 281.339 416.585 284.543C426.65 287.46 429.732 290.131 429.773 295.964C429.855 300.278 428.088 303.442 424.473 305.578C422.706 306.605 422.172 306.687 418.434 306.687C414.859 306.687 414.079 306.564 412.312 305.66C411.203 305.085 409.765 303.976 409.149 303.195C407.67 301.47 406.314 297.936 406.314 296.006V294.568H399.125H391.935V306.687V318.807H399.125H406.314V317.328C406.314 315.849 406.314 315.849 407.259 316.506C411.326 319.505 417.037 320.82 422.83 320.08C431.827 318.93 438.811 314.164 442.426 306.728C444.522 302.373 445.138 299.744 445.097 294.978C445.056 288.446 443.207 283.927 438.893 279.572C435.935 276.614 430.307 273.821 423.158 271.766C415.27 269.466 413.257 268.726 410.998 267.247C407.588 265.029 406.191 261.044 407.3 256.689C407.999 254.018 409.642 252.087 412.271 250.773C416.544 248.719 422.049 249.458 425.377 252.58C426.774 253.895 428.499 257.346 428.499 258.907V260.058H435.483H442.467V249.171V238.283H435.278C428.376 238.283 428.088 238.325 428.088 239.105C428.088 240.132 428.129 240.132 425.993 238.941C422.337 236.887 415.845 236.065 411.039 237.051Z" fill="white"/><path d="M23.5818 238.818C23.4997 239.105 23.4586 242.31 23.4997 245.884L23.6229 252.457L26.6631 252.581C29.2513 252.704 29.6211 252.786 29.4568 253.402C29.1281 254.553 10.6406 304.592 10.4763 304.756C10.4352 304.839 8.25775 304.88 5.75167 304.88C3.2045 304.921 0.86275 305.003 0.575167 305.126C0.12325 305.291 0 306.77 0 312.275V319.218H16.5566H33.0721L32.9899 312.521C32.9488 308.865 32.9078 305.619 32.9078 305.332C32.8667 304.962 31.8396 304.839 29.1692 304.839C26.4577 304.839 25.4717 304.715 25.5128 304.305C25.5128 304.058 26.4988 301.141 27.6902 297.854L29.8265 291.897L42.9732 291.774L56.1198 291.692L58.3794 297.937C59.5708 301.388 60.5979 304.387 60.5979 304.551C60.5979 304.756 58.8724 304.921 56.8183 304.962L52.9975 305.003V312.11V319.218H68.1983H83.3992V312.11V304.962L79.6606 305.003C77.6064 305.044 75.7988 304.839 75.5933 304.633C75.3879 304.387 70.7044 291.815 65.1171 276.697C59.5708 261.537 54.1068 246.747 53.0386 243.83L51.0666 238.489L37.4269 238.366C26.5398 238.284 23.7462 238.366 23.5818 238.818ZM46.9583 266.837C48.6427 271.561 50.2449 275.957 50.4914 276.573L50.9433 277.724H43.3429C39.0292 277.724 35.7425 277.559 35.7425 277.354C35.7425 276.245 43.3018 257.182 43.5894 257.675C43.7127 257.963 45.2738 262.071 46.9583 266.837Z" fill="white"/><path d="M65.7334 245.473V252.663H69.7596H73.7446L78.5925 265.481C81.2629 272.547 86.8913 287.501 91.1229 298.676L98.8055 319.012H106.776H114.705L120.087 304.51C123.045 296.54 125.592 290.172 125.715 290.336C125.879 290.542 128.385 297.074 131.261 304.921L136.561 319.218H144.408H152.296L159.116 300.812C162.895 290.706 168.442 275.793 171.482 267.658L177.028 252.868L182.164 252.745L187.34 252.622V245.473V238.284H170.907H154.473V245.473V252.663H158.417C161.416 252.663 162.32 252.786 162.197 253.156C160.266 258.661 144.778 300.319 144.613 300.319C144.367 300.319 133.069 270.329 133.11 269.712C133.11 269.507 134.507 265.604 136.273 261.003L139.396 252.663H145.723H152.008V245.473V238.284H134.343H116.677L116.759 245.35L116.882 252.457L120.703 252.581C122.757 252.622 124.483 252.868 124.483 253.074C124.483 253.32 123.004 257.428 121.155 262.194C119.347 267.001 116.553 274.355 114.992 278.545C107.967 297.033 106.693 300.319 106.488 300.114C106.365 299.991 102.339 289.309 97.5319 276.409L88.8222 252.868L92.6841 252.745L96.5459 252.622V245.473V238.284H81.1396H65.7334V245.473Z" fill="white"/><path d="M190.627 245.473V252.663H193.749C196.543 252.663 196.871 252.745 196.666 253.361C196.378 254.512 177.85 303.77 177.521 304.346C177.316 304.715 175.796 304.921 172.098 304.962L167.004 305.044L166.922 312.151L166.839 319.218L183.273 319.136L199.706 319.012V312.439C199.706 308.824 199.706 305.619 199.706 305.332C199.665 304.962 198.638 304.839 195.967 304.839C193.954 304.839 192.27 304.715 192.27 304.51C192.27 304.346 193.256 301.429 194.488 298.06L196.707 291.897L209.854 291.774L222.959 291.692L225.301 298.101C226.575 301.675 227.519 304.633 227.396 304.756C227.314 304.88 225.506 304.962 223.411 305.003L219.59 305.044L219.467 312.11L219.385 319.218H233.97H248.554V312.069V304.921L245.884 305.003C244.364 305.044 243.049 304.921 242.802 304.674C242.474 304.263 220.124 244.61 218.645 240.215L217.988 238.284H204.307H190.627V245.473ZM214.085 267.576L217.659 277.518L210.264 277.641C206.156 277.683 202.746 277.683 202.664 277.559C202.582 277.477 204.225 272.876 206.279 267.288C208.375 261.742 210.182 257.305 210.306 257.428C210.429 257.552 212.154 262.112 214.085 267.576Z" fill="white"/><path d="M316.67 245.432L316.793 252.663H321.682H326.612V278.833V305.044H321.641H316.67L316.711 311.823C316.711 315.561 316.752 318.766 316.752 318.93C316.752 319.136 326.777 319.218 339.061 319.136C360.465 318.971 361.451 318.93 364.614 318.067C370.12 316.547 374.967 313.918 378.788 310.303C387.457 302.168 391.565 293.294 392.222 281.339C393.291 260.879 382.157 244.117 364.286 239.434C361.081 238.612 359.849 238.53 338.732 238.407L316.547 238.242L316.67 245.432ZM359.684 253.279C365.929 254.594 370.161 258.004 373.036 263.961C376.241 270.575 377.186 279.942 375.337 286.967C373.571 293.623 369.175 299.58 364.08 302.291C360.301 304.304 356.973 304.839 348.058 304.88L340.375 304.921L340.252 278.792L340.17 252.663H348.469C354.22 252.663 357.712 252.868 359.684 253.279Z" fill="white"/><path d="M242.803 245.884V252.662H247.116H251.43V285.735V318.807H262.934H274.437L274.355 311.699L274.231 304.633H269.918L265.604 304.592L265.481 297.936L265.357 291.281H270.246H275.135L284.749 305.044L294.362 318.807H303.935H313.466V311.822V304.838H307.755H302.004L298.84 300.196C297.115 297.69 294.691 294.198 293.458 292.472L291.281 289.309L293.294 288.035C294.403 287.296 296.663 285.324 298.265 283.598C304.469 277.107 306.852 268.48 305.044 259.318C304.304 255.62 301.839 250.321 299.662 247.815C297.526 245.309 292.924 242.186 289.925 241.2C284.133 239.269 282.078 239.105 261.865 239.105H242.803V245.884ZM281.421 253.32C284.215 254.141 287.542 257.223 288.857 260.181C290.213 263.262 290.213 267.288 288.775 270.328C287.296 273.492 285.858 275.053 283.147 276.368C280.887 277.477 280.558 277.518 273.328 277.641L265.809 277.805V265.234V252.662H272.506C277.436 252.662 279.819 252.827 281.421 253.32Z" fill="white"/></svg>